<svg width="213" height="30" viewBox="0 0 213 30" fill="none" xmlns="http://www.w3.org/2000/svg">
<path d="M208.628 8.97461H213L205.278 26.8746H200.931L203.514 20.8496L197.454 8.97461H201.852L205.38 16.4996L208.628 8.97461Z" fill="white"/>
<path d="M191.975 3.34961H196.117V21.0996H191.975V20.4996C191.054 21.0746 189.955 21.4246 188.574 21.4246C185.224 21.4246 182.412 18.6746 182.412 15.0496C182.412 11.4496 185.224 8.69961 188.574 8.69961C189.955 8.69961 191.054 9.04961 191.975 9.64961V3.34961ZM189.418 18.0246C190.313 18.0246 191.182 17.7996 191.975 16.9496V13.1996C191.182 12.3496 190.313 12.1246 189.418 12.1246C187.73 12.1246 186.477 13.3996 186.477 15.0496C186.477 16.7496 187.73 18.0246 189.418 18.0246Z" fill="white"/>
<path d="M176.114 3.34961H180.256V21.0996H176.114V20.4996C175.193 21.0746 174.094 21.4246 172.713 21.4246C169.363 21.4246 166.551 18.6746 166.551 15.0496C166.551 11.4496 169.363 8.69961 172.713 8.69961C174.094 8.69961 175.193 9.04961 176.114 9.64961V3.34961ZM173.557 18.0246C174.452 18.0246 175.321 17.7996 176.114 16.9496V13.1996C175.321 12.3496 174.452 12.1246 173.557 12.1246C171.869 12.1246 170.616 13.3996 170.616 15.0496C170.616 16.7496 171.869 18.0246 173.557 18.0246Z" fill="white"/>
<path d="M160.202 8.97461H164.345V21.0996H160.202V20.2496C159.205 20.9996 158.131 21.4246 156.802 21.4246C153.657 21.4246 151.509 19.2996 151.509 15.8496V8.97461H155.651V15.2246C155.651 16.9496 156.572 17.7746 157.927 17.7746C158.694 17.7746 159.486 17.3496 160.202 16.5746V8.97461Z" fill="white"/>
<path d="M146.452 12.3497C148.574 12.7997 149.623 14.5497 149.623 16.3747C149.623 19.1997 147.296 21.0997 143.384 21.0997H134.639V4.09973H142.872C146.657 4.09973 148.856 5.84973 148.856 8.62473C148.856 10.1997 147.961 11.8247 146.452 12.3497ZM142.207 7.54973H138.96V11.0997H142.207C143.844 11.0997 144.739 10.2997 144.739 9.19973C144.739 8.12473 143.87 7.54973 142.207 7.54973ZM142.821 17.5997C144.611 17.5997 145.404 16.8247 145.404 15.8247C145.404 14.7747 144.509 14.1747 142.898 14.1747H138.96V17.5997H142.821Z" fill="white"/>
<path d="M127.552 8.9749H131.694V21.1749C131.694 24.9749 128.933 27.1749 125.046 27.1749C121.287 27.1749 118.551 25.0749 118.347 21.9249H122.438C122.642 23.0499 123.512 23.7499 125.046 23.7499C126.452 23.7499 127.552 22.8999 127.552 21.2499V19.7999C126.631 20.3499 125.532 20.6749 124.151 20.6749C120.801 20.6749 117.989 18.0999 117.989 14.8249C117.989 11.1249 120.801 8.6499 124.151 8.6499C125.532 8.6499 126.631 8.9999 127.552 9.5749V8.9749ZM124.995 17.4499C125.89 17.4499 126.759 17.1749 127.552 16.2999V13.0999C126.759 12.2249 125.89 11.9749 124.995 11.9749C123.307 11.9749 122.054 13.0749 122.054 14.8249C122.054 16.1499 123.307 17.4499 124.995 17.4499Z" fill="white"/>
<path d="M110.885 8.6499C114.004 8.6499 116.152 10.7249 116.152 14.1749V21.0999H112.01V14.8249C112.01 13.0999 111.115 12.3249 109.734 12.3249C108.993 12.3249 108.2 12.6999 107.484 13.4749V21.0999H103.316V8.9749H107.484V9.7749C108.481 9.0499 109.555 8.6499 110.885 8.6499Z" fill="white"/>
<path d="M98.0547 7.075C96.6995 7.075 95.6256 6.1 95.6256 4.8C95.6256 3.475 96.6995 2.5 98.0547 2.5C99.3843 2.5 100.484 3.475 100.484 4.8C100.484 6.1 99.3843 7.075 98.0547 7.075ZM96.0092 8.975H100.151V21.1H96.0092V8.975Z" fill="white"/>
<path d="M88.6683 3.34961H92.8106V21.0996H88.6683V20.4996C87.7478 21.0746 86.6483 21.4246 85.2676 21.4246C81.918 21.4246 79.1054 18.6746 79.1054 15.0496C79.1054 11.4496 81.918 8.69961 85.2676 8.69961C86.6483 8.69961 87.7478 9.04961 88.6683 9.64961V3.34961ZM86.1114 18.0246C87.0063 18.0246 87.8757 17.7996 88.6683 16.9496V13.1996C87.8757 12.3496 87.0063 12.1246 86.1114 12.1246C84.4238 12.1246 83.1709 13.3996 83.1709 15.0496C83.1709 16.7496 84.4238 18.0246 86.1114 18.0246Z" fill="white"/>
<path d="M72.8872 8.9749H77.0295V21.0999H72.8872V20.4499C71.9667 21.0499 70.8672 21.4249 69.4865 21.4249C66.1369 21.4249 63.3242 18.6249 63.3242 15.0249C63.3242 11.3999 66.1369 8.6499 69.4865 8.6499C70.8672 8.6499 71.9667 8.9999 72.8872 9.5999V8.9749ZM70.3303 17.9749C71.2252 17.9749 72.0946 17.7499 72.8872 16.8999V13.1499C72.0946 12.2999 71.2252 12.0749 70.3303 12.0749C68.6427 12.0749 67.3898 13.3499 67.3898 15.0249C67.3898 16.6999 68.6427 17.9749 70.3303 17.9749Z" fill="white"/>
<path d="M62.2136 8.77502V12.625C60.1936 12.7 58.9151 13.225 57.9435 14.15V21.1H53.7757V8.97503H57.9435V10.275C59.043 9.35002 60.3726 8.77502 62.2136 8.77502Z" fill="white"/>
<path d="M53.7469 4.09973V7.87473H48.1983V21.0997H43.9027V7.87473H38.3541V4.09973H53.7469Z" fill="white"/>
<path d="M30.6833 0H20.4555V10H10.2278V20H0V30H30.6833V0Z" fill="#E55733"/>
</svg>
