<svg width="29" height="25" viewBox="0 0 29 25" fill="none" xmlns="http://www.w3.org/2000/svg">
<path d="M17.8701 22.2448C17.5601 22.2448 17.2501 22.1648 16.9701 21.9948L12.9601 19.6147C12.5401 19.6047 12.1201 19.5748 11.7201 19.5148C11.4501 19.4748 11.2201 19.2947 11.1201 19.0347C11.0201 18.7747 11.0701 18.4947 11.2501 18.2847C11.9101 17.5147 12.2501 16.5947 12.2501 15.6147C12.2501 13.1947 10.1201 11.2247 7.50008 11.2247C6.52008 11.2247 5.58007 11.4948 4.79007 12.0148C4.57007 12.1548 4.30007 12.1748 4.06007 12.0648C3.83007 11.9548 3.66008 11.7347 3.63008 11.4747C3.60008 11.1947 3.58008 10.9148 3.58008 10.6248C3.58008 5.66476 7.88008 1.63477 13.1601 1.63477C18.4401 1.63477 22.7401 5.66476 22.7401 10.6248C22.7401 13.3448 21.4801 15.8447 19.2601 17.5547L19.6001 20.2748C19.6801 20.9548 19.3801 21.5948 18.8101 21.9648C18.5301 22.1448 18.2001 22.2448 17.8701 22.2448ZM13.1501 18.1047C13.2901 18.0947 13.4301 18.1348 13.5501 18.2148L17.7401 20.7048C17.8501 20.7748 17.9401 20.7448 18.0001 20.7048C18.0501 20.6748 18.1301 20.5948 18.1101 20.4548L17.7201 17.2947C17.6901 17.0147 17.8101 16.7448 18.0301 16.5848C20.0701 15.1548 21.2401 12.9747 21.2401 10.6047C21.2401 6.47474 17.6201 3.11475 13.1601 3.11475C8.87008 3.11475 5.35007 6.23479 5.09007 10.1548C5.84007 9.86479 6.65008 9.70477 7.49008 9.70477C10.9401 9.70477 13.7401 12.3447 13.7401 15.5947C13.7501 16.4747 13.5401 17.3247 13.1501 18.1047Z" fill="white"/>
<path d="M4.57977 23.1248C4.31977 23.1248 4.06977 23.0548 3.83977 22.9048C3.38977 22.6148 3.14978 22.1148 3.20978 21.5848L3.40977 20.0448C2.05977 18.9448 1.25977 17.3148 1.25977 15.6048C1.25977 13.6548 2.27978 11.8348 3.98978 10.7448C5.01978 10.0748 6.23977 9.71484 7.50977 9.71484C10.9598 9.71484 13.7598 12.3548 13.7598 15.6048C13.7598 16.9248 13.2798 18.2248 12.3998 19.2548C11.2698 20.6248 9.57977 21.4248 7.71977 21.4848L5.27977 22.9348C5.05977 23.0648 4.81977 23.1248 4.57977 23.1248ZM7.49977 11.2148C6.51977 11.2148 5.57976 11.4848 4.78976 12.0048C3.50976 12.8248 2.74977 14.1648 2.74977 15.6048C2.74977 16.9948 3.42978 18.2648 4.62978 19.0848C4.85978 19.2448 4.97977 19.5148 4.94977 19.7948L4.72977 21.5048L7.11977 20.0848C7.23977 20.0148 7.36977 19.9748 7.49977 19.9748C8.96977 19.9748 10.3598 19.3448 11.2398 18.2748C11.8998 17.4948 12.2498 16.5748 12.2498 15.5948C12.2498 13.1848 10.1198 11.2148 7.49977 11.2148Z" fill="white"/>
<path d="M22 0.5C25.2411 0.5 27.875 3.13386 27.875 6.375C27.875 9.61614 25.2411 12.25 22 12.25C18.7589 12.25 16.125 9.61614 16.125 6.375C16.125 3.13386 18.7589 0.5 22 0.5Z" fill="#ED1C24" stroke="#0F0F0F"/>
<path d="M21.6436 9.71631V4.59229H21.6172L20 5.7085V4.51318L21.6392 3.375H22.9575V9.71631H21.6436Z" fill="white"/>
</svg>
