<svg width="32" height="32" viewBox="0 0 32 32" fill="none" xmlns="http://www.w3.org/2000/svg">
<rect width="32" height="32" rx="16" fill="white" fill-opacity="0.12"/>
<path d="M7.66797 16C7.66797 17.9891 8.45814 19.8968 9.86467 21.3033C11.2712 22.7098 13.1788 23.5 15.168 23.5C17.1596 23.5 19.068 22.7167 20.5013 21.3333L19.2513 20.0833C18.7267 20.6389 18.0936 21.0809 17.3912 21.3819C16.6888 21.683 15.9321 21.8366 15.168 21.8333C9.96797 21.8333 7.36797 15.55 11.043 11.875C14.718 8.2 21.0013 10.8083 21.0013 16H18.5013L21.8346 19.3333H21.918L25.168 16H22.668C22.668 14.0109 21.8778 12.1032 20.4713 10.6967C19.0647 9.29018 17.1571 8.5 15.168 8.5C13.1788 8.5 11.2712 9.29018 9.86467 10.6967C8.45814 12.1032 7.66797 14.0109 7.66797 16Z" fill="white"/>
</svg>
